# xmcd
#
# Track frame offsets: 
#        182
#        22572
#        35097
#        56562
#        74775
#        88940
#        107367
#        120255
#        130017
#        147735
#        158447
#        184940
#        211162
#        236722
#        271162
#
# Disc length: 3823 seconds
#
# Revision: 1
# Processed by: cddbd v1.5.2PL0 Copyright (c) Steve Scherf et al.
# Submitted via: ExactAudioCopy v0.95b4
#
DISCID=cd0eed0f
DTITLE=Stan Getz and Joao Gilberto - Getz and Gilberto #2 [Bonus Tracks]
DYEAR=1993
DGENRE=Jazz
TTITLE0=Grandfather's Waltz 
TTITLE1=Tonight I Shall Sleep (With a Smile on My Face)
TTITLE2=Stan's Blues 
TTITLE3=Here's That Rainy Day 
TTITLE4=Samba Da Minha Terra 
TTITLE5=Rosa Morena 
TTITLE6=Um Abraco No Bonfa 
TTITLE7=Bim Bom 
TTITLE8=Meditation (Meditacao)
TTITLE9=O Pato (The Duck)
TTITLE10=It Might As Well Be Spring 
TTITLE11=Only Trust Your Heart
TTITLE12=Corcovado (Quiet Nights of Quite Stars)
TTITLE13=Garota de Ipanema (The Girl from Ipanema)
TTITLE14=Eu E Voce
EXTD=
EXTT0=
EXTT1=
EXTT2=
EXTT3=
EXTT4=
EXTT5=
EXTT6=
EXTT7=
EXTT8=
EXTT9=
EXTT10=
EXTT11=
EXTT12=
EXTT13=
EXTT14=
PLAYORDER=
